<mxfile host="app.diagrams.net" modified="2020-07-16T18:24:58.701Z" agent="5.0 (Windows NT 10.0; Win64; x64) AppleWebKit/537.36 (KHTML, like Gecko) Chrome/83.0.4103.116 Safari/537.36" etag="8Gmsv8EFnVdsOsalqxD2" version="13.4.4" type="github">
  <diagram id="92FPEMcWyaeNn1LILrVb" name="Page-1">
    <mxGraphModel dx="1422" dy="762" grid="1" gridSize="10" guides="1" tooltips="1" connect="1" arrows="1" fold="1" page="1" pageScale="1" pageWidth="850" pageHeight="1100" math="0" shadow="0">
      <root>
        <mxCell id="0" />
        <mxCell id="1" parent="0" />
        <mxCell id="OdyiLV4z1GKjxeUZD-Sj-1" value="Add Individual Membership" style="rounded=1;whiteSpace=wrap;html=1;fontSize=12;glass=0;strokeWidth=1;shadow=0;" vertex="1" parent="1">
          <mxGeometry x="160" y="80" width="120" height="40" as="geometry" />
        </mxCell>
        <mxCell id="OdyiLV4z1GKjxeUZD-Sj-2" value="" style="edgeStyle=orthogonalEdgeStyle;rounded=0;orthogonalLoop=1;jettySize=auto;html=1;entryX=1;entryY=0.5;entryDx=0;entryDy=0;exitX=0.5;exitY=1;exitDx=0;exitDy=0;" edge="1" parent="1" source="OdyiLV4z1GKjxeUZD-Sj-3" target="OdyiLV4z1GKjxeUZD-Sj-17">
          <mxGeometry relative="1" as="geometry">
            <mxPoint x="370" y="705.5" as="targetPoint" />
            <Array as="points">
              <mxPoint x="370" y="674" />
              <mxPoint x="290" y="674" />
            </Array>
            <mxPoint x="370" y="670" as="sourcePoint" />
          </mxGeometry>
        </mxCell>
        <mxCell id="OdyiLV4z1GKjxeUZD-Sj-3" value="Create Organization Level Membership" style="rounded=1;whiteSpace=wrap;html=1;fontSize=12;glass=0;strokeWidth=1;shadow=0;" vertex="1" parent="1">
          <mxGeometry x="310" y="585" width="120" height="42" as="geometry" />
        </mxCell>
        <mxCell id="OdyiLV4z1GKjxeUZD-Sj-4" value="" style="edgeStyle=orthogonalEdgeStyle;rounded=0;orthogonalLoop=1;jettySize=auto;html=1;entryX=0;entryY=0.5;entryDx=0;entryDy=0;" edge="1" parent="1" source="OdyiLV4z1GKjxeUZD-Sj-14" target="OdyiLV4z1GKjxeUZD-Sj-7">
          <mxGeometry relative="1" as="geometry">
            <mxPoint x="430" y="190" as="targetPoint" />
            <Array as="points">
              <mxPoint x="540" y="180" />
            </Array>
          </mxGeometry>
        </mxCell>
        <mxCell id="OdyiLV4z1GKjxeUZD-Sj-5" value="No" style="edgeStyle=orthogonalEdgeStyle;rounded=0;orthogonalLoop=1;jettySize=auto;html=1;" edge="1" parent="1" source="OdyiLV4z1GKjxeUZD-Sj-7" target="OdyiLV4z1GKjxeUZD-Sj-8">
          <mxGeometry relative="1" as="geometry" />
        </mxCell>
        <mxCell id="OdyiLV4z1GKjxeUZD-Sj-6" value="yes" style="edgeStyle=orthogonalEdgeStyle;rounded=0;orthogonalLoop=1;jettySize=auto;html=1;" edge="1" parent="1" source="OdyiLV4z1GKjxeUZD-Sj-7" target="OdyiLV4z1GKjxeUZD-Sj-29">
          <mxGeometry relative="1" as="geometry" />
        </mxCell>
        <mxCell id="OdyiLV4z1GKjxeUZD-Sj-7" value="Are all required fields filled in?" style="rhombus;whiteSpace=wrap;html=1;rounded=0;" vertex="1" parent="1">
          <mxGeometry x="540" y="210" width="80" height="80" as="geometry" />
        </mxCell>
        <mxCell id="OdyiLV4z1GKjxeUZD-Sj-8" value="Throw validation" style="whiteSpace=wrap;html=1;rounded=0;" vertex="1" parent="1">
          <mxGeometry x="658.5" y="220" width="120" height="60" as="geometry" />
        </mxCell>
        <mxCell id="OdyiLV4z1GKjxeUZD-Sj-9" value="" style="edgeStyle=orthogonalEdgeStyle;rounded=0;orthogonalLoop=1;jettySize=auto;html=1;exitX=0.5;exitY=1;exitDx=0;exitDy=0;" edge="1" parent="1" source="OdyiLV4z1GKjxeUZD-Sj-10" target="OdyiLV4z1GKjxeUZD-Sj-13">
          <mxGeometry relative="1" as="geometry">
            <mxPoint x="220" y="540" as="sourcePoint" />
          </mxGeometry>
        </mxCell>
        <mxCell id="OdyiLV4z1GKjxeUZD-Sj-10" value="Update Related" style="whiteSpace=wrap;html=1;rounded=0;" vertex="1" parent="1">
          <mxGeometry x="160" y="390" width="120" height="60" as="geometry" />
        </mxCell>
        <mxCell id="OdyiLV4z1GKjxeUZD-Sj-11" value="No" style="edgeStyle=orthogonalEdgeStyle;rounded=0;orthogonalLoop=1;jettySize=auto;html=1;entryX=0.5;entryY=0;entryDx=0;entryDy=0;" edge="1" parent="1" source="OdyiLV4z1GKjxeUZD-Sj-13" target="OdyiLV4z1GKjxeUZD-Sj-3">
          <mxGeometry relative="1" as="geometry">
            <mxPoint x="380" y="529" as="targetPoint" />
          </mxGeometry>
        </mxCell>
        <mxCell id="OdyiLV4z1GKjxeUZD-Sj-12" value="Yes" style="edgeStyle=orthogonalEdgeStyle;rounded=0;orthogonalLoop=1;jettySize=auto;html=1;" edge="1" parent="1" source="OdyiLV4z1GKjxeUZD-Sj-13" target="OdyiLV4z1GKjxeUZD-Sj-17">
          <mxGeometry relative="1" as="geometry" />
        </mxCell>
        <mxCell id="OdyiLV4z1GKjxeUZD-Sj-13" value="Is there an organization level membership?" style="rhombus;whiteSpace=wrap;html=1;shadow=0;fontFamily=Helvetica;fontSize=12;align=center;strokeWidth=1;spacing=6;spacingTop=-4;" vertex="1" parent="1">
          <mxGeometry x="168.5" y="480" width="103" height="98" as="geometry" />
        </mxCell>
        <mxCell id="OdyiLV4z1GKjxeUZD-Sj-14" value="Create account membership" style="rounded=0;whiteSpace=wrap;html=1;" vertex="1" parent="1">
          <mxGeometry x="160" y="150" width="120" height="60" as="geometry" />
        </mxCell>
        <mxCell id="OdyiLV4z1GKjxeUZD-Sj-15" value="" style="edgeStyle=orthogonalEdgeStyle;rounded=0;orthogonalLoop=1;jettySize=auto;html=1;" edge="1" parent="1" source="OdyiLV4z1GKjxeUZD-Sj-1" target="OdyiLV4z1GKjxeUZD-Sj-14">
          <mxGeometry relative="1" as="geometry">
            <mxPoint x="220" y="120" as="sourcePoint" />
            <mxPoint x="220" y="200" as="targetPoint" />
          </mxGeometry>
        </mxCell>
        <mxCell id="OdyiLV4z1GKjxeUZD-Sj-16" value="" style="edgeStyle=orthogonalEdgeStyle;rounded=0;orthogonalLoop=1;jettySize=auto;html=1;" edge="1" parent="1" source="OdyiLV4z1GKjxeUZD-Sj-17" target="OdyiLV4z1GKjxeUZD-Sj-19">
          <mxGeometry relative="1" as="geometry" />
        </mxCell>
        <mxCell id="OdyiLV4z1GKjxeUZD-Sj-17" value="Create Membership Account Members" style="whiteSpace=wrap;html=1;shadow=0;strokeWidth=1;spacing=6;spacingTop=-4;" vertex="1" parent="1">
          <mxGeometry x="160" y="640" width="120" height="67" as="geometry" />
        </mxCell>
        <mxCell id="OdyiLV4z1GKjxeUZD-Sj-18" value="" style="edgeStyle=orthogonalEdgeStyle;rounded=0;orthogonalLoop=1;jettySize=auto;html=1;" edge="1" parent="1" source="OdyiLV4z1GKjxeUZD-Sj-19" target="OdyiLV4z1GKjxeUZD-Sj-22">
          <mxGeometry relative="1" as="geometry" />
        </mxCell>
        <mxCell id="OdyiLV4z1GKjxeUZD-Sj-19" value="Create account membership Items&amp;nbsp;" style="whiteSpace=wrap;html=1;shadow=0;strokeWidth=1;spacing=6;spacingTop=-4;" vertex="1" parent="1">
          <mxGeometry x="160" y="740" width="120" height="67" as="geometry" />
        </mxCell>
        <mxCell id="OdyiLV4z1GKjxeUZD-Sj-20" value="" style="edgeStyle=orthogonalEdgeStyle;rounded=0;orthogonalLoop=1;jettySize=auto;html=1;" edge="1" parent="1" source="OdyiLV4z1GKjxeUZD-Sj-25" target="OdyiLV4z1GKjxeUZD-Sj-24">
          <mxGeometry relative="1" as="geometry" />
        </mxCell>
        <mxCell id="OdyiLV4z1GKjxeUZD-Sj-21" value="" style="edgeStyle=orthogonalEdgeStyle;rounded=0;orthogonalLoop=1;jettySize=auto;html=1;" edge="1" parent="1" source="OdyiLV4z1GKjxeUZD-Sj-22" target="OdyiLV4z1GKjxeUZD-Sj-39">
          <mxGeometry relative="1" as="geometry" />
        </mxCell>
        <mxCell id="OdyiLV4z1GKjxeUZD-Sj-22" value="Create order (er100) installments based on the period" style="whiteSpace=wrap;html=1;shadow=0;strokeWidth=1;spacing=6;spacingTop=-4;" vertex="1" parent="1">
          <mxGeometry x="160" y="830" width="120" height="67" as="geometry" />
        </mxCell>
        <mxCell id="OdyiLV4z1GKjxeUZD-Sj-23" value="" style="edgeStyle=orthogonalEdgeStyle;rounded=0;orthogonalLoop=1;jettySize=auto;html=1;" edge="1" parent="1" source="OdyiLV4z1GKjxeUZD-Sj-24" target="OdyiLV4z1GKjxeUZD-Sj-33">
          <mxGeometry relative="1" as="geometry" />
        </mxCell>
        <mxCell id="OdyiLV4z1GKjxeUZD-Sj-24" value="Create order install ment (er101s) items based on subscription items. Items are tied to the member via an id or account code (shared method ideally for add/edit)" style="whiteSpace=wrap;html=1;shadow=0;strokeWidth=1;spacing=6;spacingTop=-4;" vertex="1" parent="1">
          <mxGeometry x="135" y="1120" width="170" height="105" as="geometry" />
        </mxCell>
        <mxCell id="OdyiLV4z1GKjxeUZD-Sj-25" value="Create order members based account members" style="whiteSpace=wrap;html=1;shadow=0;strokeWidth=1;spacing=6;spacingTop=-4;" vertex="1" parent="1">
          <mxGeometry x="160" y="1020" width="120" height="67" as="geometry" />
        </mxCell>
        <mxCell id="OdyiLV4z1GKjxeUZD-Sj-26" value="No" style="edgeStyle=orthogonalEdgeStyle;rounded=0;orthogonalLoop=1;jettySize=auto;html=1;" edge="1" parent="1" source="OdyiLV4z1GKjxeUZD-Sj-29" target="OdyiLV4z1GKjxeUZD-Sj-30">
          <mxGeometry relative="1" as="geometry" />
        </mxCell>
        <mxCell id="OdyiLV4z1GKjxeUZD-Sj-27" value="No" style="edgeStyle=orthogonalEdgeStyle;rounded=0;orthogonalLoop=1;jettySize=auto;html=1;entryX=1;entryY=0.5;entryDx=0;entryDy=0;exitX=0;exitY=0.5;exitDx=0;exitDy=0;" edge="1" parent="1" source="OdyiLV4z1GKjxeUZD-Sj-35" target="OdyiLV4z1GKjxeUZD-Sj-32">
          <mxGeometry relative="1" as="geometry">
            <mxPoint x="470" y="510" as="targetPoint" />
            <mxPoint x="530" y="540" as="sourcePoint" />
            <Array as="points">
              <mxPoint x="510" y="410" />
              <mxPoint x="395" y="410" />
              <mxPoint x="395" y="290" />
            </Array>
          </mxGeometry>
        </mxCell>
        <mxCell id="OdyiLV4z1GKjxeUZD-Sj-28" value="Yes" style="edgeStyle=orthogonalEdgeStyle;rounded=0;orthogonalLoop=1;jettySize=auto;html=1;" edge="1" parent="1" source="OdyiLV4z1GKjxeUZD-Sj-29" target="OdyiLV4z1GKjxeUZD-Sj-35">
          <mxGeometry relative="1" as="geometry" />
        </mxCell>
        <mxCell id="OdyiLV4z1GKjxeUZD-Sj-29" value="Is membership start date within the period" style="rhombus;whiteSpace=wrap;html=1;rounded=0;" vertex="1" parent="1">
          <mxGeometry x="540" y="340" width="80" height="80" as="geometry" />
        </mxCell>
        <mxCell id="OdyiLV4z1GKjxeUZD-Sj-30" value="&lt;span&gt;Throw validation&lt;/span&gt;" style="whiteSpace=wrap;html=1;rounded=0;" vertex="1" parent="1">
          <mxGeometry x="680" y="350" width="120" height="60" as="geometry" />
        </mxCell>
        <mxCell id="OdyiLV4z1GKjxeUZD-Sj-31" value="" style="edgeStyle=orthogonalEdgeStyle;rounded=0;orthogonalLoop=1;jettySize=auto;html=1;entryX=0.5;entryY=0;entryDx=0;entryDy=0;" edge="1" parent="1" source="OdyiLV4z1GKjxeUZD-Sj-32" target="OdyiLV4z1GKjxeUZD-Sj-10">
          <mxGeometry relative="1" as="geometry">
            <mxPoint x="220" y="580" as="targetPoint" />
          </mxGeometry>
        </mxCell>
        <mxCell id="OdyiLV4z1GKjxeUZD-Sj-32" value="Process" style="whiteSpace=wrap;html=1;rounded=0;" vertex="1" parent="1">
          <mxGeometry x="160" y="260" width="120" height="60" as="geometry" />
        </mxCell>
        <mxCell id="OdyiLV4z1GKjxeUZD-Sj-33" value="Set&lt;br&gt;Administrator records via a computed column using special generic util method. Examples in profiles. Fill in list data and business by a shared util&amp;nbsp; method." style="whiteSpace=wrap;html=1;shadow=0;strokeWidth=1;spacing=6;spacingTop=-4;" vertex="1" parent="1">
          <mxGeometry x="155" y="1260" width="130" height="140" as="geometry" />
        </mxCell>
        <mxCell id="OdyiLV4z1GKjxeUZD-Sj-34" value="Yes" style="edgeStyle=orthogonalEdgeStyle;rounded=0;orthogonalLoop=1;jettySize=auto;html=1;" edge="1" parent="1" source="OdyiLV4z1GKjxeUZD-Sj-35" target="OdyiLV4z1GKjxeUZD-Sj-36">
          <mxGeometry relative="1" as="geometry" />
        </mxCell>
        <mxCell id="OdyiLV4z1GKjxeUZD-Sj-35" value="&lt;font style=&quot;font-size: 10px&quot;&gt;Does Account already have membership With this period&lt;/font&gt;" style="rhombus;whiteSpace=wrap;html=1;rounded=0;" vertex="1" parent="1">
          <mxGeometry x="510" y="485" width="140" height="130" as="geometry" />
        </mxCell>
        <mxCell id="OdyiLV4z1GKjxeUZD-Sj-36" value="Throw Validation" style="whiteSpace=wrap;html=1;rounded=0;" vertex="1" parent="1">
          <mxGeometry x="707" y="485" width="120" height="60" as="geometry" />
        </mxCell>
        <mxCell id="OdyiLV4z1GKjxeUZD-Sj-37" value="" style="edgeStyle=orthogonalEdgeStyle;rounded=0;orthogonalLoop=1;jettySize=auto;html=1;entryX=0.5;entryY=0;entryDx=0;entryDy=0;" edge="1" parent="1" source="OdyiLV4z1GKjxeUZD-Sj-39" target="OdyiLV4z1GKjxeUZD-Sj-25">
          <mxGeometry relative="1" as="geometry">
            <mxPoint x="220" y="1067" as="targetPoint" />
          </mxGeometry>
        </mxCell>
        <mxCell id="OdyiLV4z1GKjxeUZD-Sj-38" value="" style="edgeStyle=orthogonalEdgeStyle;rounded=0;orthogonalLoop=1;jettySize=auto;html=1;" edge="1" parent="1" source="OdyiLV4z1GKjxeUZD-Sj-39" target="OdyiLV4z1GKjxeUZD-Sj-40">
          <mxGeometry relative="1" as="geometry" />
        </mxCell>
        <mxCell id="OdyiLV4z1GKjxeUZD-Sj-39" value="Create Order Membership to store new information that shouldn&#39;t go on the Installment order." style="whiteSpace=wrap;html=1;shadow=0;strokeWidth=1;spacing=6;spacingTop=-4;" vertex="1" parent="1">
          <mxGeometry x="160" y="920" width="120" height="67" as="geometry" />
        </mxCell>
        <mxCell id="OdyiLV4z1GKjxeUZD-Sj-40" value="May be needed. May not. If we need new columns for the order then we need this table. This table is just a relationship table for membership installment orders" style="ellipse;shape=cloud;whiteSpace=wrap;html=1;shadow=0;strokeWidth=1;spacing=6;spacingTop=-4;" vertex="1" parent="1">
          <mxGeometry x="360" y="872.63" width="190" height="161.75" as="geometry" />
        </mxCell>
      </root>
    </mxGraphModel>
  </diagram>
</mxfile>
